<svg width="168" height="31" viewBox="0 0 168 31" fill="none" xmlns="http://www.w3.org/2000/svg">
<rect y="0.083252" width="30" height="30" rx="8" fill="#303030"/>
<g clip-path="url(#clip0_18_369)">
<mask id="mask0_18_369" style="mask-type:luminance" maskUnits="userSpaceOnUse" x="7" y="7" width="16" height="17">
<path d="M23 7.08325H7V23.0833H23V7.08325Z" fill="white"/>
</mask>
<g mask="url(#mask0_18_369)">
<path fill-rule="evenodd" clip-rule="evenodd" d="M11.7121 7.15597C8.75568 7.29102 7.20258 8.95462 7.07366 11.795C6.97545 13.9454 6.97545 16.2204 7.07366 18.3709C7.20258 21.2113 8.75568 22.8749 11.7121 23.0099C13.8631 23.1075 16.1375 23.1075 18.2885 23.0099C21.1289 22.8798 22.7919 21.3291 22.9269 18.3709C23.0246 16.2198 23.0246 13.9466 22.9269 11.795C22.7944 8.89998 21.1835 7.28856 18.2885 7.15597C16.1375 7.05836 13.8631 7.05836 11.7121 7.15597ZM18.2228 8.59182C20.3708 8.68942 21.3941 9.71214 21.4911 11.8607C21.5881 13.9663 21.5881 16.1996 21.4911 18.3052C21.391 20.5157 20.3149 21.4789 18.2228 21.5741C16.116 21.6704 13.8846 21.6704 11.7778 21.5741C9.68508 21.4789 8.60958 20.5157 8.5089 18.3052C8.41252 16.1996 8.41252 13.9663 8.5089 11.8607C8.60405 9.76738 9.56783 8.69249 11.7778 8.59182C13.8846 8.49544 16.116 8.49544 18.2228 8.59182ZM15 17.741C13.5322 17.741 12.3419 16.5513 12.3419 15.0829C12.3419 13.6145 13.5322 12.4248 15 12.4248C16.4678 12.4248 17.6587 13.6145 17.6587 15.0829C17.6587 16.5513 16.4684 17.741 15 17.741ZM15 10.9878C12.7391 10.9878 10.9049 12.8214 10.9049 15.0829C10.9049 17.3445 12.7385 19.1781 15 19.1781C17.2615 19.1781 19.0951 17.3445 19.0951 15.0829C19.0951 12.8214 17.2621 10.9878 15 10.9878ZM20.2142 10.8257C20.2142 11.3543 19.7858 11.7833 19.2572 11.7833C18.7287 11.7833 18.3002 11.3549 18.3002 10.8263C18.3002 10.2978 18.7281 9.86929 19.2572 9.86929C19.7864 9.86929 20.2142 10.2978 20.2142 10.8257Z" fill="white"/>
</g>
</g>
<rect x="46" y="0.083252" width="30" height="30" rx="8" fill="#303030"/>
<g clip-path="url(#clip1_18_369)">
<path d="M63.0999 15.7136C63.7824 17.4461 64.2899 19.2311 64.6224 21.0686C65.0949 20.7886 65.5324 20.4386 65.9349 20.0361C66.9849 18.9861 67.6499 17.6736 67.8949 16.2561C66.8624 15.8361 65.7424 15.5911 64.5699 15.5911C64.0799 15.5911 63.5899 15.6261 63.0999 15.7136Z" fill="white"/>
<path d="M65.9526 10.1483C65.9526 10.1308 65.9526 10.1308 65.9526 10.1483C64.6226 8.81825 62.8726 8.08325 61.0001 8.08325C60.2651 8.08325 59.5476 8.18825 58.8826 8.41575C59.9676 9.78075 60.9301 11.2333 61.7351 12.7558C63.2751 12.1083 64.6926 11.2158 65.9526 10.1483Z" fill="white"/>
<path d="M66.5126 10.761C65.1826 11.8985 63.7126 12.8085 62.1201 13.491C62.3476 13.9635 62.5751 14.4535 62.7851 14.9435C63.3801 14.8385 63.9751 14.7685 64.5876 14.7685C65.7601 14.7685 66.9151 14.9785 68.0001 15.3985C68.0001 15.2935 68.0001 15.1885 68.0001 15.0835C68.0001 13.491 67.4751 11.986 66.5126 10.761Z" fill="white"/>
<path d="M56.6951 20.5959C57.9201 21.5584 59.4251 22.0834 61.0001 22.0834C61.9976 22.0834 62.9776 21.8734 63.8701 21.4709C63.5376 19.5459 62.9951 17.6734 62.2951 15.8884C59.8101 16.5709 57.7626 18.3209 56.6951 20.5959Z" fill="white"/>
<path d="M60.86 15.5209C61.2275 15.3634 61.595 15.2409 61.9625 15.1359C61.77 14.6809 61.56 14.2434 61.3325 13.8059C59.4425 14.5059 57.4475 14.8559 55.4175 14.8559C54.945 14.8559 54.4725 14.8384 54 14.8034V15.0834C54 16.9559 54.735 18.7059 56.0475 20.0359C56.5025 19.1259 57.0975 18.3034 57.8325 17.5684C58.7075 16.6934 59.74 15.9934 60.86 15.5209Z" fill="white"/>
<path d="M60.9651 13.0712C60.1251 11.5312 59.1627 10.0787 58.0602 8.7312C57.3252 9.0812 56.6427 9.5537 56.0477 10.1312C54.9801 11.1987 54.3151 12.5287 54.0876 13.9812C54.5251 14.0162 54.9801 14.0337 55.4176 14.0337C57.3601 14.0337 59.2326 13.7012 60.9651 13.0712Z" fill="white"/>
</g>
<rect x="92" y="0.083252" width="30" height="30" rx="8" fill="#303030"/>
<g clip-path="url(#clip2_18_369)">
<mask id="mask1_18_369" style="mask-type:luminance" maskUnits="userSpaceOnUse" x="100" y="8" width="14" height="15">
<path d="M114 8.08325H100V22.0833H114V8.08325Z" fill="white"/>
</mask>
<g mask="url(#mask1_18_369)">
<path d="M103.259 12.5872H100.448C100.323 12.5872 100.222 12.6883 100.222 12.813V21.8419C100.222 21.9667 100.323 22.0677 100.448 22.0677H103.259C103.383 22.0677 103.485 21.9667 103.485 21.8419V12.813C103.485 12.6883 103.383 12.5872 103.259 12.5872Z" fill="white"/>
<path d="M101.855 8.09888C100.832 8.09888 100 8.92993 100 9.95144C100 10.9734 100.832 11.8048 101.855 11.8048C102.876 11.8048 103.708 10.9734 103.708 9.95144C103.708 8.92993 102.876 8.09888 101.855 8.09888Z" fill="white"/>
<path d="M110.408 12.3625C109.279 12.3625 108.444 12.8478 107.938 13.3992V12.8128C107.938 12.6881 107.837 12.5869 107.713 12.5869H105.021C104.896 12.5869 104.795 12.6881 104.795 12.8128V21.8417C104.795 21.9665 104.896 22.0675 105.021 22.0675H107.825C107.95 22.0675 108.051 21.9665 108.051 21.8417V17.3745C108.051 15.8691 108.46 15.2827 109.509 15.2827C110.652 15.2827 110.743 16.2228 110.743 17.4519V21.8418C110.743 21.9665 110.844 22.0676 110.969 22.0676H113.774C113.899 22.0676 114 21.9665 114 21.8418V16.8892C114 14.6508 113.573 12.3625 110.408 12.3625Z" fill="white"/>
</g>
</g>
<rect x="138" y="0.083252" width="30" height="30" rx="8" fill="#303030"/>
<g clip-path="url(#clip3_18_369)">
<path d="M156.77 12.3499C156.77 12.3499 155.483 16.4566 155.391 16.8299C155.391 16.4566 154.379 9.08325 154.379 9.08325C152.172 9.08325 150.977 10.6699 150.425 12.3499C150.425 12.3499 148.862 16.4566 148.77 16.8299C148.678 16.5499 148.494 12.4433 148.494 12.4433C148.31 10.3899 146.471 9.08325 145 9.08325L146.839 20.2833C149.138 20.2833 150.425 18.6966 151.069 17.0166C151.069 17.0166 152.448 13.3766 152.54 13.1899C152.54 13.3766 153.552 20.2833 153.552 20.2833C155.851 20.2833 157.138 18.7899 157.782 17.2033L161 9.08325C158.609 9.08325 157.414 10.6699 156.77 12.3499Z" fill="white"/>
</g>
<defs>
<clipPath id="clip0_18_369">
<rect width="16" height="16" fill="white" transform="translate(7 7.08325)"/>
</clipPath>
<clipPath id="clip1_18_369">
<rect width="14" height="14" fill="white" transform="translate(54 8.08325)"/>
</clipPath>
<clipPath id="clip2_18_369">
<rect width="14" height="14" fill="white" transform="translate(100 8.08325)"/>
</clipPath>
<clipPath id="clip3_18_369">
<rect width="16" height="12" fill="white" transform="translate(145 9.08325)"/>
</clipPath>
</defs>
</svg>
