<svg width="36" height="36" viewBox="0 0 36 36" fill="none" xmlns="http://www.w3.org/2000/svg">
<rect x="0.987305" y="0.655884" width="34.6877" height="34.6882" rx="17.3439" fill="white" fill-opacity="0.31"/>
<path d="M26.6294 12.0348C25.5849 12.0348 24.6731 12.644 24.4148 13.5146L23.1427 17.7896H12.9311C11.8856 17.7896 10.973 18.4003 10.7156 19.2725L7.5498 30.0002H13.0607L15.241 22.5113H21.8859C25.024 22.5113 27.7629 20.6804 28.5383 18.0638L30.331 12.0348L26.6294 12.0348Z" fill="white"/>
<path d="M12.2473 14.488L13.3634 10.7214H22.686C23.7315 10.7214 24.6441 10.1107 24.9015 9.23871L25.8576 5.99976H14.6202C11.4826 5.99976 8.7437 7.83067 7.96782 10.4472L6.33105 15.9678H10.0327C11.0773 15.9678 11.9886 15.3588 12.2473 14.488Z" fill="white"/>
</svg>
