<svg width="41" height="40" viewBox="0 0 41 40" fill="none" xmlns="http://www.w3.org/2000/svg">
<rect x="0.0126953" width="40" height="40" rx="20" fill="white"/>
<path d="M13.3462 28.3333C13.3462 24.6514 16.331 21.6667 20.0129 21.6667C23.6948 21.6667 26.6795 24.6514 26.6795 28.3333H25.0129C25.0129 25.5719 22.7743 23.3333 20.0129 23.3333C17.2514 23.3333 15.0129 25.5719 15.0129 28.3333H13.3462ZM20.0129 20.8333C17.2504 20.8333 15.0129 18.5958 15.0129 15.8333C15.0129 13.0708 17.2504 10.8333 20.0129 10.8333C22.7754 10.8333 25.0129 13.0708 25.0129 15.8333C25.0129 18.5958 22.7754 20.8333 20.0129 20.8333ZM20.0129 19.1667C21.8545 19.1667 23.3462 17.675 23.3462 15.8333C23.3462 13.9917 21.8545 12.5 20.0129 12.5C18.1712 12.5 16.6795 13.9917 16.6795 15.8333C16.6795 17.675 18.1712 19.1667 20.0129 19.1667Z" fill="black"/>
</svg>
